<svg xmlns="http://www.w3.org/2000/svg" xmlns:xlink="http://www.w3.org/1999/xlink" width="500" zoomAndPan="magnify" viewBox="0 0 375 374.999991" height="500" preserveAspectRatio="xMidYMid meet" version="1.0" ><defs><g/><clipPath id="466fcd2728"><path d="M 124 110 L 251 110 L 251 237 L 124 237 Z M 124 110 " clip-rule="nonzero"/></clipPath><clipPath id="fc03e9c022"><path d="M 213.199219 88.582031 L 272.960938 199.367188 L 161.953125 259.246094 L 102.191406 148.460938 Z M 213.199219 88.582031 " clip-rule="nonzero"/></clipPath><clipPath id="fae00d95e4"><path d="M 132.167969 203.714844 C 124.203125 188.945312 122.449219 171.933594 127.277344 155.855469 C 132.074219 139.765625 142.878906 126.515625 157.652344 118.546875 C 172.421875 110.578125 189.433594 108.824219 205.511719 113.652344 C 221.601562 118.449219 234.855469 129.257812 242.820312 144.027344 C 250.789062 158.800781 252.542969 175.808594 247.714844 191.890625 C 242.898438 207.992188 232.109375 221.230469 217.339844 229.199219 C 202.570312 237.167969 185.558594 238.921875 169.480469 234.089844 C 153.390625 229.296875 140.136719 218.488281 132.167969 203.714844 Z M 239.503906 145.816406 C 232.015625 131.929688 219.546875 121.785156 204.433594 117.261719 C 189.320312 112.738281 173.328125 114.371094 159.441406 121.863281 C 145.554688 129.351562 135.40625 141.820312 130.886719 156.933594 C 126.363281 172.050781 127.996094 188.039062 135.484375 201.925781 C 142.976562 215.8125 155.445312 225.960938 170.558594 230.480469 C 185.671875 235.003906 201.664062 233.371094 215.550781 225.882812 C 229.4375 218.390625 239.582031 205.921875 244.105469 190.808594 C 248.628906 175.695312 246.996094 159.703125 239.503906 145.816406 Z M 239.503906 145.816406 " clip-rule="nonzero"/></clipPath><clipPath id="b425da3f1c"><path d="M 126 137 L 217 137 L 217 228 L 126 228 Z M 126 137 " clip-rule="nonzero"/></clipPath><clipPath id="6a2a55cf36"><path d="M 189.640625 122.050781 L 232.03125 200.632812 L 153.292969 243.105469 L 110.902344 164.523438 Z M 189.640625 122.050781 " clip-rule="nonzero"/></clipPath><clipPath id="cd22efab4b"><path d="M 132.164062 203.71875 C 126.515625 193.238281 125.269531 181.175781 128.695312 169.769531 C 132.097656 158.355469 139.761719 148.957031 150.242188 143.304688 C 160.71875 137.652344 172.785156 136.410156 184.191406 139.832031 C 195.601562 143.234375 205.003906 150.902344 210.652344 161.378906 C 216.304688 171.855469 217.550781 183.921875 214.125 195.328125 C 210.707031 206.75 203.054688 216.140625 192.578125 221.792969 C 182.101562 227.445312 170.035156 228.6875 158.628906 225.261719 C 147.21875 221.859375 137.816406 214.195312 132.164062 203.71875 Z M 208.300781 162.648438 C 202.988281 152.796875 194.144531 145.601562 183.421875 142.394531 C 172.703125 139.1875 161.359375 140.34375 151.511719 145.65625 C 141.660156 150.96875 134.460938 159.8125 131.253906 170.535156 C 128.046875 181.253906 129.207031 192.597656 134.519531 202.449219 C 139.832031 212.296875 148.675781 219.496094 159.394531 222.703125 C 170.117188 225.910156 181.460938 224.753906 191.308594 219.4375 C 201.160156 214.125 208.355469 205.28125 211.566406 194.5625 C 214.773438 183.839844 213.613281 172.5 208.300781 162.648438 Z M 208.300781 162.648438 " clip-rule="nonzero"/></clipPath><clipPath id="b8bb129371"><path d="M 128 159 L 189 159 L 189 220 L 128 220 Z M 128 159 " clip-rule="nonzero"/></clipPath><clipPath id="5cb862aa84"><path d="M 170.707031 148.957031 L 199.132812 201.648438 L 146.332031 230.128906 L 117.910156 177.4375 Z M 170.707031 148.957031 " clip-rule="nonzero"/></clipPath><clipPath id="5e121c9b2a"><path d="M 132.167969 203.71875 C 128.375 196.691406 127.542969 188.601562 129.839844 180.953125 C 132.121094 173.300781 137.261719 166.996094 144.285156 163.207031 C 151.3125 159.417969 159.402344 158.582031 167.050781 160.878906 C 174.703125 163.160156 181.007812 168.300781 184.796875 175.328125 C 188.585938 182.351562 189.421875 190.445312 187.125 198.089844 C 184.832031 205.75 179.703125 212.046875 172.675781 215.835938 C 165.652344 219.628906 157.558594 220.460938 149.914062 218.164062 C 142.257812 215.882812 135.957031 210.742188 132.167969 203.71875 Z M 183.21875 176.179688 C 179.65625 169.574219 173.726562 164.746094 166.539062 162.597656 C 159.347656 160.445312 151.742188 161.222656 145.136719 164.785156 C 138.53125 168.347656 133.707031 174.277344 131.554688 181.464844 C 129.40625 188.65625 130.179688 196.261719 133.746094 202.867188 C 137.308594 209.472656 143.238281 214.296875 150.425781 216.449219 C 157.613281 218.597656 165.21875 217.824219 171.824219 214.257812 C 178.429688 210.695312 183.257812 204.765625 185.40625 197.578125 C 187.558594 190.390625 186.78125 182.785156 183.21875 176.179688 Z M 183.21875 176.179688 " clip-rule="nonzero"/></clipPath><clipPath id="3a3386d3f7"><path d="M 130 178 L 165 178 L 165 213 L 130 213 Z M 130 178 " clip-rule="nonzero"/></clipPath><clipPath id="d2f4f7616b"><path d="M 154.160156 172.421875 L 170.402344 202.527344 L 140.292969 218.769531 L 124.050781 188.660156 Z M 154.160156 172.421875 " clip-rule="nonzero"/></clipPath><clipPath id="5e5169f36c"><path d="M 162.28125 187.472656 C 157.796875 179.160156 147.417969 176.054688 139.105469 180.539062 C 130.792969 185.027344 127.6875 195.402344 132.171875 203.714844 C 136.65625 212.03125 147.03125 215.132812 155.347656 210.648438 C 163.660156 206.164062 166.765625 195.789062 162.28125 187.472656 " clip-rule="nonzero"/></clipPath></defs><g clip-path="url(#466fcd2728)"><g clip-path="url(#fc03e9c022)"><g clip-path="url(#fae00d95e4)"><path fill="#000000" d="M 212.976562 88.703125 L 272.617188 199.265625 L 162.054688 258.90625 L 102.414062 148.34375 Z M 212.976562 88.703125 " fill-opacity="1" fill-rule="nonzero"/></g></g></g><g clip-path="url(#b425da3f1c)"><g clip-path="url(#6a2a55cf36)"><g clip-path="url(#cd22efab4b)"><path fill="#000000" d="M 189.484375 122.136719 L 231.789062 200.558594 L 153.363281 242.863281 L 111.058594 164.4375 Z M 189.484375 122.136719 " fill-opacity="1" fill-rule="nonzero"/></g></g></g><g clip-path="url(#b8bb129371)"><g clip-path="url(#5cb862aa84)"><g clip-path="url(#5e121c9b2a)"><path fill="#000000" d="M 170.601562 149.011719 L 198.96875 201.601562 L 146.382812 229.96875 L 118.015625 177.378906 Z M 170.601562 149.011719 " fill-opacity="1" fill-rule="nonzero"/></g></g></g><g clip-path="url(#3a3386d3f7)"><g clip-path="url(#d2f4f7616b)"><g clip-path="url(#5e5169f36c)"><path fill="#222222" d="M 154.160156 172.421875 L 170.402344 202.527344 L 140.292969 218.769531 L 124.050781 188.660156 Z M 154.160156 172.421875 " fill-opacity="1" fill-rule="nonzero"/></g></g></g><g fill="#000000" fill-opacity="1"><g transform="translate(90.155007, 273.800331)"><g><path d="M 3.28125 0 L 11.328125 0 C 15.277344 0 17.746094 -2.121094 17.746094 -5.546875 C 17.746094 -8.015625 16.378906 -9.789062 14.027344 -10.484375 C 16.003906 -11.179688 17.164062 -12.835938 17.164062 -15.042969 C 17.164062 -18.269531 14.753906 -20.332031 11.007812 -20.332031 L 3.28125 -20.332031 Z M 5.054688 -1.65625 L 5.054688 -9.554688 L 11.179688 -9.554688 C 14.203125 -9.554688 15.945312 -8.101562 15.945312 -5.605469 C 15.945312 -3.136719 14.203125 -1.65625 11.269531 -1.65625 Z M 5.054688 -11.179688 L 5.054688 -18.675781 L 10.976562 -18.675781 C 13.738281 -18.675781 15.363281 -17.25 15.363281 -14.929688 C 15.363281 -12.574219 13.738281 -11.179688 10.949219 -11.179688 Z M 5.054688 -11.179688 "/></g></g></g><g fill="#000000" fill-opacity="1"><g transform="translate(116.932828, 273.800331)"><g><path d="M 12.34375 0.378906 C 18.558594 0.378906 22.828125 -3.949219 22.828125 -10.164062 C 22.828125 -16.378906 18.558594 -20.707031 12.34375 -20.707031 C 6.15625 -20.707031 1.859375 -16.378906 1.859375 -10.164062 C 1.859375 -3.949219 6.15625 0.378906 12.34375 0.378906 Z M 3.660156 -10.164062 C 3.660156 -15.394531 7.203125 -18.9375 12.34375 -18.9375 C 17.511719 -18.9375 21.054688 -15.394531 21.054688 -10.164062 C 21.054688 -4.964844 17.511719 -1.394531 12.34375 -1.394531 C 7.203125 -1.394531 3.660156 -4.964844 3.660156 -10.164062 Z M 3.660156 -10.164062 "/></g></g></g><g fill="#000000" fill-opacity="1"><g transform="translate(148.764158, 273.800331)"><g><path d="M 12.34375 0.378906 C 18.558594 0.378906 22.828125 -3.949219 22.828125 -10.164062 C 22.828125 -16.378906 18.558594 -20.707031 12.34375 -20.707031 C 6.15625 -20.707031 1.859375 -16.378906 1.859375 -10.164062 C 1.859375 -3.949219 6.15625 0.378906 12.34375 0.378906 Z M 3.660156 -10.164062 C 3.660156 -15.394531 7.203125 -18.9375 12.34375 -18.9375 C 17.511719 -18.9375 21.054688 -15.394531 21.054688 -10.164062 C 21.054688 -4.964844 17.511719 -1.394531 12.34375 -1.394531 C 7.203125 -1.394531 3.660156 -4.964844 3.660156 -10.164062 Z M 3.660156 -10.164062 "/></g></g></g><g fill="#000000" fill-opacity="1"><g transform="translate(180.595493, 273.800331)"><g><path d="M 12.140625 0.378906 C 18.328125 0.378906 22.449219 -4.242188 22.390625 -10.6875 L 11.5 -10.6875 L 11.5 -9.003906 L 20.503906 -9.003906 C 20.125 -4.558594 16.902344 -1.394531 12.167969 -1.394531 C 7.144531 -1.394531 3.660156 -4.964844 3.660156 -10.164062 C 3.660156 -15.363281 7.117188 -18.9375 12.167969 -18.9375 C 15.800781 -18.9375 18.585938 -17.078125 19.867188 -14.058594 L 21.78125 -14.058594 C 20.476562 -18.007812 16.785156 -20.707031 12.082031 -20.707031 C 6.128906 -20.707031 1.859375 -16.320312 1.859375 -10.164062 C 1.859375 -4.007812 6.128906 0.378906 12.140625 0.378906 Z M 12.140625 0.378906 "/></g></g></g><g fill="#000000" fill-opacity="1"><g transform="translate(211.904053, 273.800331)"><g><path d="M 3.28125 0 L 5.054688 0 L 5.054688 -20.332031 L 3.28125 -20.332031 Z M 3.28125 0 "/></g></g></g><g fill="#000000" fill-opacity="1"><g transform="translate(227.384061, 273.800331)"><g><path d="M 3.28125 0 L 15.566406 0 L 15.566406 -1.65625 L 5.054688 -1.65625 L 5.054688 -9.554688 L 14.492188 -9.554688 L 14.492188 -11.179688 L 5.054688 -11.179688 L 5.054688 -18.675781 L 15.246094 -18.675781 L 15.246094 -20.332031 L 3.28125 -20.332031 Z M 3.28125 0 "/></g></g></g><g fill="#000000" fill-opacity="1"><g transform="translate(252.215977, 273.800331)"><g><path d="M 2.441406 -13.273438 L 3.921875 -13.273438 L 3.980469 -20.332031 L 2.382812 -20.332031 Z M 2.441406 -13.273438 "/></g></g></g><g fill="#000000" fill-opacity="1"><g transform="translate(265.750105, 273.800331)"><g><path d="M 9.816406 0.378906 C 14.230469 0.378906 17.019531 -1.773438 17.019531 -5.167969 C 17.019531 -8.074219 15.042969 -9.875 9.902344 -11.066406 C 5.632812 -12.023438 4.125 -13.273438 4.125 -15.304688 C 4.125 -17.542969 6.039062 -19.023438 9.324219 -19.023438 C 12.722656 -19.023438 14.78125 -17.398438 14.929688 -14.523438 L 16.671875 -14.523438 C 16.527344 -18.441406 13.796875 -20.707031 9.324219 -20.707031 C 4.996094 -20.707031 2.351562 -18.558594 2.351562 -15.304688 C 2.351562 -12.257812 4.472656 -10.570312 9.46875 -9.410156 C 13.5625 -8.507812 15.21875 -7.261719 15.21875 -5.140625 C 15.21875 -2.789062 13.15625 -1.308594 9.816406 -1.308594 C 6.300781 -1.308594 3.949219 -3.050781 3.777344 -6.039062 L 2.03125 -6.039062 C 2.179688 -2.121094 5.167969 0.378906 9.816406 0.378906 Z M 9.816406 0.378906 "/></g></g></g></svg>